<svg width="168" height="24" viewBox="0 0 168 24" fill="none" xmlns="http://www.w3.org/2000/svg">
<path d="M45.4316 13.2637C45.321 14.7936 44.7546 15.998 43.7324 16.877C42.7168 17.7559 41.3757 18.1953 39.709 18.1953C37.8861 18.1953 36.4505 17.5833 35.4023 16.3594C34.3607 15.1289 33.8398 13.4427 33.8398 11.3008V10.4316C33.8398 9.06445 34.0807 7.86003 34.5625 6.81836C35.0443 5.77669 35.7311 4.97917 36.623 4.42578C37.5215 3.86589 38.5632 3.58594 39.748 3.58594C41.3887 3.58594 42.7103 4.02539 43.7129 4.9043C44.7155 5.7832 45.2949 7.01693 45.4512 8.60547H42.5215C42.4499 7.6875 42.1927 7.02344 41.75 6.61328C41.3138 6.19661 40.6465 5.98828 39.748 5.98828C38.7715 5.98828 38.0391 6.33984 37.5508 7.04297C37.069 7.73958 36.8216 8.82357 36.8086 10.2949V11.3691C36.8086 12.9056 37.0397 14.0286 37.502 14.7383C37.9707 15.4479 38.7064 15.8027 39.709 15.8027C40.6139 15.8027 41.2878 15.5977 41.7305 15.1875C42.1797 14.7708 42.4368 14.1296 42.502 13.2637H45.4316ZM50.2852 15.6465H56.5059V18H47.3555V3.78125H50.2852V15.6465ZM61.3105 18H58.3809V3.78125H61.3105V18ZM67.8633 3.78125L71.5156 14.0938L75.1484 3.78125H78.9961V18H76.0566V14.1133L76.3496 7.4043L72.5117 18H70.5L66.6719 7.41406L66.9648 14.1133V18H64.0352V3.78125H67.8633ZM93.2344 11.2129C93.2344 12.6126 92.987 13.8398 92.4922 14.8945C91.9974 15.9492 91.2878 16.763 90.3633 17.3359C89.4453 17.9089 88.3906 18.1953 87.1992 18.1953C86.0208 18.1953 84.9694 17.9121 84.0449 17.3457C83.1204 16.7793 82.4043 15.972 81.8965 14.9238C81.3887 13.8691 81.1315 12.6582 81.125 11.291V10.5879C81.125 9.18815 81.3757 7.95768 81.877 6.89648C82.3848 5.82878 83.0977 5.01172 84.0156 4.44531C84.9401 3.8724 85.9948 3.58594 87.1797 3.58594C88.3646 3.58594 89.416 3.8724 90.334 4.44531C91.2585 5.01172 91.9714 5.82878 92.4727 6.89648C92.9805 7.95768 93.2344 9.1849 93.2344 10.5781V11.2129ZM90.2656 10.5684C90.2656 9.07747 89.9987 7.94466 89.4648 7.16992C88.931 6.39518 88.1693 6.00781 87.1797 6.00781C86.1966 6.00781 85.4382 6.39193 84.9043 7.16016C84.3704 7.92188 84.1003 9.04167 84.0938 10.5195V11.2129C84.0938 12.6647 84.3607 13.791 84.8945 14.5918C85.4284 15.3926 86.1966 15.793 87.1992 15.793C88.1823 15.793 88.9375 15.4089 89.4648 14.6406C89.9922 13.8659 90.2591 12.7396 90.2656 11.2617V10.5684ZM102.736 14.2695C102.736 13.7161 102.541 13.293 102.15 13C101.76 12.7005 101.057 12.388 100.041 12.0625C99.0254 11.7305 98.2214 11.4049 97.6289 11.0859C96.0143 10.2135 95.207 9.03841 95.207 7.56055C95.207 6.79232 95.4219 6.10872 95.8516 5.50977C96.2878 4.9043 96.9095 4.43229 97.7168 4.09375C98.5306 3.75521 99.4421 3.58594 100.451 3.58594C101.467 3.58594 102.372 3.77148 103.166 4.14258C103.96 4.50716 104.576 5.02474 105.012 5.69531C105.454 6.36589 105.676 7.1276 105.676 7.98047H102.746C102.746 7.32943 102.541 6.82487 102.131 6.4668C101.721 6.10221 101.145 5.91992 100.402 5.91992C99.6862 5.91992 99.1296 6.07292 98.7324 6.37891C98.3353 6.67839 98.1367 7.07552 98.1367 7.57031C98.1367 8.03255 98.3678 8.41992 98.8301 8.73242C99.2988 9.04492 99.9857 9.33789 100.891 9.61133C102.557 10.1126 103.771 10.7344 104.533 11.4766C105.295 12.2188 105.676 13.1432 105.676 14.25C105.676 15.4805 105.21 16.4473 104.279 17.1504C103.348 17.847 102.095 18.1953 100.52 18.1953C99.4258 18.1953 98.4297 17.9967 97.5312 17.5996C96.6328 17.196 95.946 16.6458 95.4707 15.9492C95.002 15.2526 94.7676 14.4453 94.7676 13.5273H97.707C97.707 15.0964 98.6445 15.8809 100.52 15.8809C101.216 15.8809 101.76 15.7409 102.15 15.4609C102.541 15.1745 102.736 14.7773 102.736 14.2695ZM118.371 6.1543H114.016V18H111.086V6.1543H106.789V3.78125H118.371V6.1543ZM126.906 15.0703H121.77L120.793 18H117.678L122.971 3.78125H125.686L131.008 18H127.893L126.906 15.0703ZM122.561 12.6973H126.115L124.328 7.375L122.561 12.6973ZM141.867 6.1543H137.512V18H134.582V6.1543H130.285V3.78125H141.867V6.1543ZM152.102 11.8379H146.477V15.6465H153.078V18H143.547V3.78125H153.059V6.1543H146.477V9.54297H152.102V11.8379Z" fill="black"/>
<path d="M12 1.57541V5.57541" stroke="black" stroke-width="3" stroke-linecap="round" stroke-linejoin="round"/>
<path d="M12 17.5754V21.5754" stroke="black" stroke-width="3" stroke-linecap="round" stroke-linejoin="round"/>
<path d="M4.92993 4.50543L7.75993 7.33543" stroke="black" stroke-width="3" stroke-linecap="round" stroke-linejoin="round"/>
<path d="M16.24 15.8154L19.07 18.6454" stroke="black" stroke-width="3" stroke-linecap="round" stroke-linejoin="round"/>
<path d="M2 11.5754H6" stroke="black" stroke-width="3" stroke-linecap="round" stroke-linejoin="round"/>
<path d="M18 11.5754H22" stroke="black" stroke-width="3" stroke-linecap="round" stroke-linejoin="round"/>
<path d="M4.92993 18.6454L7.75993 15.8154" stroke="black" stroke-width="3" stroke-linecap="round" stroke-linejoin="round"/>
<path d="M16.24 7.33543L19.07 4.50543" stroke="black" stroke-width="3" stroke-linecap="round" stroke-linejoin="round"/>
</svg>
