<?xml version="1.0" encoding="UTF-8"?>
<svg width="64px" height="64px" viewBox="0 0 64 64" version="1.1" xmlns="http://www.w3.org/2000/svg" xmlns:xlink="http://www.w3.org/1999/xlink">
    <!-- Generator: Sketch 64 (93537) - https://sketch.com -->
    <title>Personal Service</title>
    <desc>Created with Sketch.</desc>
    <g id="Personal-Service" stroke="none" stroke-width="1" fill="none" fill-rule="evenodd" stroke-linejoin="round">
        <path d="M22.6704,17.645 C22.6374,17.862 22.6184,18.08 22.6114,18.294 C22.5894,18.99 23.0934,19.594 23.7754,19.736 L30.2814,21.099 C32.3214,21.329 32.5574,22.179 33.7604,23.843 C34.4224,24.76 33.8324,26.048 32.7054,26.145 L20.9994,25.284 C19.2374,25.435 17.5324,24.618 16.5454,23.151 L12.1434,18.558 L3.2344,19.32" id="Stroke-1" stroke="#3d1543" stroke-width="1.819"></path>
        <path d="M33.457,14.6602 C30.063,14.2622 27.027,14.1582 25.047,14.7362 C23.525,15.1812 22.862,16.4032 22.67,17.6452" id="Stroke-3" stroke="#3d1543" stroke-width="1.819"></path>
        <path d="M20.9971,5.1714 L25.4421,4.3964 C27.2051,4.0884 29.0151,4.1754 30.7411,4.6514 L45.8021,8.8064 C46.4471,8.9844 47.0261,9.3494 47.4671,9.8554 L60.5341,24.8694 C60.9621,25.4074 60.5431,26.1964 59.8571,26.1424 L57.5401,25.9564 C56.3101,25.8584 54.3861,24.8424 53.4911,23.9944 L43.5201,16.2644 C40.2441,15.6854 36.6881,15.0394 33.4571,14.6604" id="Stroke-5" stroke="#3d1543" stroke-width="1.819"></path>
        <line x1="9.9097" y1="7.105" x2="20.9967" y2="5.171" id="Stroke-7" stroke="#3d1543" stroke-width="1.819"></line>
        <line x1="2.3032" y1="8.4316" x2="9.9092" y2="7.1046" id="Stroke-9" stroke="#3d1543" stroke-width="1.819"></line>
        <path d="M53.4912,23.9946 L50.9732,24.2096 C49.4532,24.3396 47.9672,23.7056 47.0082,22.5186 L40.8512,16.1016" id="Stroke-11" stroke="#3d1543" stroke-width="1.819"></path>
        <line x1="9.9097" y1="15.7578" x2="12.1437" y2="18.5578" id="Stroke-13" stroke="#3d1543" stroke-width="1.819"></line>
        <path d="M28.7686,36.7363 C28.7686,34.9253 30.2356,33.4593 32.0456,33.4593 C33.8556,33.4593 35.3236,34.9253 35.3236,36.7363" id="Stroke-15" stroke="#3d1543" stroke-width="2"></path>
        <line x1="47.1709" y1="42.7441" x2="51.5409" y2="41.6511" id="Stroke-17" stroke="#3d1543" stroke-width="2"></line>
        <line x1="18.8599" y1="40.7393" x2="15.1159" y2="38.2363" id="Stroke-19" stroke="#3d1543" stroke-width="2"></line>
        <line x1="44.8975" y1="32.9624" x2="41.8595" y2="36.1024" id="Stroke-21" stroke="#3d1543" stroke-width="2"></line>
        <path d="M46.1055,49.5762 C43.6425,44.2682 38.2815,40.5802 32.0455,40.5802 C25.8105,40.5802 20.4485,44.2682 17.9855,49.5762 L46.1055,49.5762 Z" id="Stroke-23" stroke="#3d1543" stroke-width="2"></path>
        <path d="M17.9858,52.6035 C17.0658,54.5845 16.5378,56.7865 16.5378,59.1145 C16.5378,59.6995 16.5768,60.2735 16.6398,60.8415 L47.4518,60.8415 C47.5148,60.2735 47.5538,59.6995 47.5538,59.1145 C47.5538,56.7865 47.0258,54.5845 46.1058,52.6035 L17.9858,52.6035 Z" id="Stroke-25" stroke="#3d1543" stroke-width="2"></path>
        <line x1="32.0459" y1="49.5762" x2="32.0459" y2="52.6032" id="Stroke-27" stroke="#3d1543" stroke-width="2"></line>
        <line x1="28.7686" y1="37.124" x2="35.3236" y2="37.124" id="Stroke-29" stroke="#3d1543" stroke-width="2"></line>
        <line x1="32.0459" y1="39.4873" x2="32.0459" y2="37.1243" id="Stroke-31" stroke="#3d1543" stroke-width="2"></line>
        <line x1="5.8135" y1="60.8418" x2="58.8785" y2="60.8418" id="Stroke-33" stroke="#3d1543" stroke-width="2"></line>
    </g>
</svg>